<svg enable-background="new 0 0 100 100" height="512" viewBox="0 0 100 100" width="512" xmlns="http://www.w3.org/2000/svg"><path d="m70.1392212 14.2480812h-53.1993694c-2.4116478 0-4.3666182 1.9549694-4.3666182 4.3666172v72.0186844c0 2.4115772 1.9549704 4.3666172 4.3666182 4.3666172h53.1993713c2.4115829 0 4.3666153-1.95504 4.3666153-4.3666153v-72.0186863c-.0000019-2.4116478-1.9550343-4.3666172-4.3666172-4.3666172z" fill="#344e5c"/><path d="m7.529928 28.024555h72.018814v53.198971h-72.018814z" fill="#ececec" transform="matrix(0 1 -1 0 98.163 11.085)"/><path d="m55.1554909 10.3284121h-6.2875443c0-2.9428163-2.3855934-5.3284121-5.3284111-5.3284121s-5.3284111 2.3855958-5.3284111 5.3284121h-6.2875423c-2.0966244 0-3.7962704 1.6996469-3.7962704 3.7962713v9.371479h30.8244476v-9.371479c0-2.0966244-1.699646-3.7962713-3.7962684-3.7962713zm-11.6161537 2.4275054c-1.3406487 0-2.4275055-1.0868568-2.4275055-2.4275055s1.0868568-2.4275055 2.4275055-2.4275055 2.4275055 1.0868578 2.4275055 2.4275055-1.0868569 2.4275055-2.4275055 2.4275055z" fill="#ffd25a"/><path d="m28.127312 18.467049h30.82445v5.029113h-30.82445z" fill="#ebbf54"/><g fill="#dad7dc"><path d="m21.924627 33.798626h43.229416v2.092859h-43.229416z"/><path d="m21.924627 41.218765h43.229416v2.092859h-43.229416z"/><path d="m21.924627 48.638901h43.229416v2.092859h-43.229416z"/><path d="m21.924627 56.05904h43.229416v2.092859h-43.229416z"/><path d="m21.924627 63.479179h43.229416v2.092859h-43.229416z"/><path d="m21.924627 70.899315h43.229416v2.092859h-43.229416z"/><path d="m21.924627 78.319458h43.229416v2.092859h-43.229416z"/></g><circle cx="72.754" cy="68.54" fill="#e6e7e8" r="14.673"/><circle cx="72.754" cy="68.54" fill="#4388b9" r="12.109"/><path d="m77.9034576 66.6394653h-3.2477875v-3.2484016c0-1.0502052-.8515472-1.9011421-1.9011383-1.9011421s-1.9011459.8509369-1.9011459 1.9011421v3.2484016h-3.2490158c-1.0495911 0-1.9011459.8509369-1.9011459 1.9011459 0 1.0502014.8515549 1.9011383 1.9011459 1.9011383h3.2490158v3.2477798c0 1.050209.8515549 1.9011459 1.9011459 1.9011459s1.9011383-.8509369 1.9011383-1.9011459v-3.2477798h3.2477875c1.0495834 0 1.9011383-.8509369 1.9011383-1.9011383 0-1.050209-.8515548-1.9011459-1.9011383-1.9011459z" fill="#e6e7e8"/></svg>