<svg id="line" height="512" viewBox="0 0 64 64" width="512" xmlns="http://www.w3.org/2000/svg"><path d="m52 17h-5v-1a3 3 0 0 0 -3-3h-12a3 3 0 0 0 -3 3v1h-5a3 3 0 0 0 -3 3v40a3 3 0 0 0 3 3h28a3 3 0 0 0 3-3v-40a3 3 0 0 0 -3-3zm-21-1a1 1 0 0 1 1-1h12a1 1 0 0 1 1 1v4a1 1 0 0 1 -1 1h-12a1 1 0 0 1 -1-1zm17.707 18.707-12 12a1 1 0 0 1 -1.414 0l-8-8a1 1 0 0 1 1.414-1.414l7.293 7.293 11.293-11.293a1 1 0 0 1 1.414 1.414z" fill="#c4a2fc"/><g fill="#151a6a"><path d="m42.5 8h-4.5v-.5a2.5 2.5 0 0 0 -2.5-2.5h-3.6a4.686 4.686 0 0 0 -4.9-4 4.686 4.686 0 0 0 -4.9 4h-3.6a2.5 2.5 0 0 0 -2.5 2.5v.5h-4.5a2.5 2.5 0 0 0 -2.5 2.5v38a2.5 2.5 0 0 0 2.5 2.5h31a2.5 2.5 0 0 0 2.5-2.5v-38a2.5 2.5 0 0 0 -2.5-2.5zm-15.5-5a2.682 2.682 0 0 1 2.844 2h-5.688a2.682 2.682 0 0 1 2.844-2zm-9 4.5a.5.5 0 0 1 .5-.5h17a.5.5 0 0 1 .5.5v3a.5.5 0 0 1 -.5.5h-17a.5.5 0 0 1 -.5-.5zm25 41a.5.5 0 0 1 -.5.5h-31a.5.5 0 0 1 -.5-.5v-38a.5.5 0 0 1 .5-.5h4.5v.5a2.5 2.5 0 0 0 2.5 2.5h17a2.5 2.5 0 0 0 2.5-2.5v-.5h4.5a.5.5 0 0 1 .5.5z"/><path d="m18 23a3 3 0 1 0 -3-3 3 3 0 0 0 3 3zm0-4a1 1 0 1 1 -1 1 1 1 0 0 1 1-1z"/><path d="m38 19h-15a1 1 0 0 0 0 2h15a1 1 0 0 0 0-2z"/><path d="m38 26h-22a1 1 0 0 0 0 2h22a1 1 0 0 0 0-2z"/><path d="m21 37a3 3 0 1 0 -3 3 3 3 0 0 0 3-3zm-4 0a1 1 0 1 1 1 1 1 1 0 0 1 -1-1z"/><path d="m38 36h-15a1 1 0 0 0 0 2h15a1 1 0 0 0 0-2z"/><path d="m38 43h-22a1 1 0 0 0 0 2h22a1 1 0 0 0 0-2z"/></g></svg>