<svg enable-background="new 0 0 100 100" height="512" viewBox="0 0 100 100" width="512" xmlns="http://www.w3.org/2000/svg"><path d="m95 50c0 3.2478752-5.3957062 5.8459816-6.086441 8.884758-.7132492 3.1378479 3.0038376 7.8149796 1.6380157 10.6459427-1.3882828 2.8775177-7.3762054 2.8782425-9.3498764 5.3498764-1.9832382 2.4836273-.6596222 8.3196335-3.1433029 10.302803-2.471489 1.9734268-7.8644104-.6080246-10.7416992.7801132-2.8307953 1.3657074-4.1649284 7.2044296-7.3025589 7.9176407-3.0388413.6907654-6.7661934-3.9754715-10.0141373-3.9754715-3.2478752 0-6.9751472 4.6662521-10.0139236 3.9755249-3.1378479-.7132492-4.472168-6.5520477-7.3031387-7.9178696-2.8775101-1.3882828-8.27071 1.1929169-10.7423477-.7807465-2.4836235-1.9832382-1.1598358-7.8192062-3.1430054-10.302887-1.9734325-2.471489-7.9612179-2.4721069-9.3493538-5.3493881-1.3657064-2.8307953 2.3514662-7.5077209 1.6382504-10.6453514-.6907598-3.0388373-6.0864812-5.6369971-6.0864812-8.8849448 0-3.2478752 5.3957081-5.8459778 6.0864382-8.884758.7132492-3.1378479-3.0038347-7.8149757-1.63801-10.6459446 1.3882809-2.877512 7.3762045-2.8782387 9.3498755-5.3498783 1.9832382-2.4836216.6596184-8.3196278 3.1432991-10.3027964 2.471489-1.9734325 7.8644142.6080208 10.7417011-.7801142 2.8307953-1.3657074 4.1649284-7.2044291 7.3025589-7.9176455 3.0388412-.6907591 6.7661933 3.9754764 10.0141372 3.9754764 3.2478752 0 6.9751472-4.666254 10.0139236-3.9755239 3.1378479.7132487 4.472168 6.552043 7.3031387 7.9178677 2.8775101 1.3882809 8.2707062-1.1929207 10.7423477.7807493 2.4836197 1.9832382 1.1598358 7.8192043 3.1430054 10.302887 1.9734344 2.471489 7.9612198 2.4721012 9.34935 5.3493862 1.3657074 2.8307972-2.3514633 7.507719-1.6382446 10.6453495.6907578 3.0388373 6.0864792 5.6370009 6.0864792 8.8849448z" fill="#cd5148"/><circle cx="50" cy="50" fill="#e35d54" r="26.007"/><g fill="#d6b251"><path d="m15.5683899 45.922348 1.3249092 2.6845589 2.9625893.4304886-2.1437493 2.0896415.5060692 2.950615-2.6498184-1.3930931-2.6498194 1.3930931.5060702-2.950615-2.1437483-2.0896415 2.9625873-.4304886z"/><path d="m84.4316101 45.922348 1.324913 2.6845589 2.9625855.4304886-2.1437531 2.0896415.506073 2.950615-2.6498184-1.3930931-2.6498184 1.3930931.506073-2.950615-2.1437531-2.0896415 2.9625855-.4304886z"/><path d="m17.0710735 60.8558197 2.3353196 1.8731079 2.866949-.8618889-1.0597763 2.799839 1.7056408 2.4602967-2.9902992-.1427078-1.8128052 2.382431-.7883301-2.8880387-2.8260145-.9878692 2.5030833-1.6422005z"/><path d="m79.4823456 31.752964 2.3353195 1.8731079 2.866951-.8618889-1.0597763 2.7998429 1.7056427 2.4602928-2.9903031-.1427078-1.8128051 2.382431-.7883301-2.8880424-2.8260117-.9878655 2.5030823-1.6422005z"/><path d="m24.7441254 73.7550812 2.9081268.7106628 2.2340889-1.9927673.2227802 2.985405 2.5855999 1.5089492-2.770441 1.1344147-.6361008 2.9253388-1.9350071-2.2842865-2.9787312.2990112 1.5745411-2.5461884z"/><path d="m69.0085526 21.0027924 2.9081268.7106609 2.2340851-1.9927597.2227859 2.9854011 2.5855942 1.5089474-2.7704392 1.1344166-.6361007 2.9253406-1.9350052-2.2842922-2.9787369.2990132 1.5745468-2.5461865z"/><path d="m37.1497345 82.2030106 2.935997-.5849533 1.1825943-2.7502213 1.4635925 2.6115417 2.9810601.274849-2.0314484 2.198967.6598015 2.9200897-2.7190972-1.2525025-2.5732803 1.5298691.3509522-2.9730606z"/><path d="m54.972847 15.686244 2.935997-.5849485 1.1825943-2.7502222 1.4635925 2.6115408 2.9810601.2748499-2.0314484 2.1989698.6598015 2.9200878-2.7190972-1.2525024-2.5732803 1.5298633.350956-2.9730587z"/><path d="m51.9632835 84.6165924 2.4137078-1.7709503-.0904999-2.9923325 2.4301491 1.7483216 2.817913-1.0107575-.9117927 2.851471 1.8320656 2.3676605-2.9936676.0139847-1.6856347 2.4740448-.9383964-2.8428269z"/><path d="m40.0053101 16.7995605 2.4137077-1.7709503-.0904999-2.9923334 2.4301491 1.7483187 2.817913-1.0107517-.9117889 2.8514709 1.8320618 2.3676548-2.9936676.0139866-1.6856346 2.4740429-.9383965-2.8428269z"/><path d="m66.4089432 80.5435715 1.439125-2.6251068-1.3466339-2.673729 2.9413376.5574875 2.1267319-2.1069488.3787231 2.9696502 2.661026 1.3715592-2.7072754 1.2778549-.4821243 2.954628-2.0519104-2.1798935z"/><path d="m26.9106216 24.1341209 1.439127-2.625103-1.3466358-2.673727 2.9413357.5574875 2.1267338-2.1069527.3787193 2.9696503 2.6610298 1.3715591-2.7072754 1.2778569-.4821262 2.9546222-2.0519085-2.1798915z"/><path d="m78.8977661 69.1593857.0273285-2.9935761-2.4505463-1.7196121 2.8554993-.8990784.8781891-2.8619995 1.7374725 2.4379158 2.9933014-.0491981-1.7816849 2.4057922.9717713 2.8315964-2.8386231-.9510574z"/><path d="m17.4263763 38.1205215.0273247-2.993576-2.4505472-1.7196159 2.855504-.8990784.878191-2.8619976 1.7374726 2.4379139 2.9932975-.0491982-1.7816867 2.4057961.9717712 2.8315925-2.8386173-.9510536z"/></g><path d="m45.1093788 62.0746078c-.9406967 0-1.8810387-.3589096-2.5988541-1.076725l-7.0185204-7.0181618c-1.435276-1.4349174-1.435276-3.7620773 0-5.196991 1.4349136-1.4356308 3.7620735-1.4356308 5.1977043 0l4.4196701 4.4189529 14.2009125-14.1998367c1.4359894-1.4356308 3.7624321-1.4349136 5.1977043 0s1.4352722 3.7620735 0 5.196991l-16.7997626 16.7990456c-.7178192.7178154-1.6581574 1.076725-2.5988541 1.076725z" fill="#e6e7e8"/></svg>