<svg enable-background="new 0 0 100 100" height="512" viewBox="0 0 100 100" width="512" xmlns="http://www.w3.org/2000/svg"><path d="m75.7065582 68.9232483h-24.1839752v-17.8911781h-3.0510559v17.8911781h-24.1780167c-.8427162 0-1.525528.6833038-1.525528 1.525528v14.6047363c0 .8422165.6828117 1.525528 1.525528 1.525528.8427143 0 1.525526-.6833115 1.525526-1.525528v-13.079216h22.6524906v13.079216h3.0510559v-13.079216h22.6584473v13.079216c0 .8422165.6828156 1.525528 1.525528 1.525528s1.525528-.6833115 1.525528-1.525528v-14.6047364c0-.8422241-.6828156-1.5255279-1.525528-1.5255279z" fill="#304651"/><path d="m78.1263046 13.3427792v24.5705433c0 1.5300369-1.2372513 2.7671242-2.7670441 2.7671242h-50.724224c-1.5298729 0-2.7670403-1.2370872-2.7670403-2.7671242v-24.5705433c0-1.5297108 1.2371674-2.7667961 2.7670403-2.7667961h50.7242241c1.5297927-.0000001 2.767044 1.2370853 2.767044 2.7667961z" fill="#d6b24e"/><path d="m26.92075 5h46.152798v26.614559h-46.152798z" fill="#ececec"/><path d="m74.8457108 62.3165436h-49.6914216c-1.2993584 0-2.4086533-.9385376-2.6238518-2.2199516l-6.1870422-34.180706c-.2725124-1.622694.9784317-3.1012363 2.6238499-3.1012363h62.065506c1.6454239 0 2.8963623 1.4785423 2.6238556 3.1012363l-6.1870499 34.180706c-.2151928 1.281414-1.3244839 2.2199516-2.623846 2.2199516z" fill="#ffd25a"/><g fill="#b0b1b5"><path d="m29.919661 8.88671h40.15498v1.582462h-40.15498z"/><path d="m29.919661 12.324863h40.15498v1.582462h-40.15498z"/><path d="m29.919661 15.763015h15.853011v1.582462h-15.853011z"/></g><circle cx="50" cy="86.579" fill="#dad7dc" r="8.421"/><g fill="#d6b251"><circle cx="24.294" cy="86.579" r="8.421"/><circle cx="75.706" cy="86.579" r="8.421"/></g></svg>